<svg width="467" height="600" viewBox="0 0 467 600" fill="none" xmlns="http://www.w3.org/2000/svg">
<g clip-path="url(#clip0_39_4)">
<path fill-rule="evenodd" clip-rule="evenodd" d="M5.43334 27.3C3.47694e-06 37.9667 0 51.9667 0 80V520C0 548 3.47694e-06 562 5.43334 572.7C10.2341 582.104 17.8886 589.747 27.3 594.533C37.9667 600 51.9667 600 80 600H86.6667C114.667 600 128.667 600 139.367 594.567C148.783 589.772 156.438 582.116 161.233 572.7C166.667 562.033 166.667 548.033 166.667 520V80C166.667 52 166.667 38 161.233 27.3C156.438 17.8836 148.783 10.2284 139.367 5.43334C128.7 3.47694e-06 114.7 0 86.6667 0H80C52 0 38 3.47694e-06 27.3 5.43334C17.8836 10.2284 10.2284 17.8836 5.43334 27.3ZM305.433 27.3C300 37.9667 300 51.9667 300 80V520C300 548 300 562 305.467 572.7C310.259 582.099 317.901 589.741 327.3 594.533C337.967 600 351.967 600 380 600H386.667C414.667 600 428.667 600 439.367 594.567C448.771 589.766 456.414 582.111 461.2 572.7C466.667 562.033 466.667 548.033 466.667 520V80C466.667 52 466.667 38 461.233 27.3C456.438 17.8836 448.783 10.2284 439.367 5.43334C428.7 3.47694e-06 414.7 0 386.667 0H380C352 0 338 3.47694e-06 327.3 5.43334C317.896 10.2341 310.22 17.8887 305.433 27.3Z" fill="white"/>
</g>
<defs>
<clipPath id="clip0_39_4">
<rect width="467" height="600" fill="white"/>
</clipPath>
</defs>
</svg>
